<?xml version="1.0" standalone="no"?>
<!DOCTYPE svg PUBLIC "-//W3C//DTD SVG 20010904//EN"
 "http://www.w3.org/TR/2001/REC-SVG-20010904/DTD/svg10.dtd">
<svg version="1.0" xmlns="http://www.w3.org/2000/svg"
 width="1000.000000pt" height="350.000000pt" viewBox="0 0 1000.000000 350.000000"
 preserveAspectRatio="xMidYMid meet">
<metadata>
Created by potrace 1.16, written by Peter Selinger 2001-2019
</metadata>
<g transform="translate(0.000000,350.000000) scale(0.100000,-0.100000)"
fill="#000000" stroke="none">
<path d="M7934 3438 c19 -69 19 -68 -3 -68 -11 0 -42 14 -68 30 -57 36 -102
50 -165 50 -58 0 -62 -14 -15 -63 l32 -34 -45 -29 c-64 -42 -114 -66 -131 -62
-18 4 -24 -52 -10 -93 10 -29 10 -29 -30 -29 -26 0 -39 -4 -39 -13 0 -21 57
-95 78 -101 12 -4 22 -22 29 -53 9 -39 8 -50 -8 -77 -26 -43 -24 -57 21 -145
22 -43 40 -85 40 -94 0 -55 129 -227 171 -227 28 0 24 -35 -6 -48 -28 -13 -29
-19 -15 -57 17 -44 -18 -97 -72 -112 -23 -7 -65 -19 -91 -27 l-48 -15 -15 34
c-8 19 -14 50 -14 69 0 25 -7 40 -26 55 -32 25 -55 26 -94 6 -65 -34 -80 -112
-34 -181 15 -21 22 -40 18 -41 -5 -2 -27 -14 -49 -26 -51 -29 -59 -53 -86
-254 -19 -143 -22 -157 -47 -178 -25 -21 -26 -26 -16 -63 9 -32 8 -44 -2 -54
-8 -7 -17 -55 -22 -108 -6 -57 -18 -113 -30 -140 -19 -40 -19 -48 -7 -67 11
-16 12 -34 5 -78 -13 -80 -15 -184 -3 -196 6 -6 54 -1 134 15 68 13 142 27
165 31 l40 6 -16 -103 c-17 -100 -17 -104 2 -125 16 -17 19 -29 13 -62 -4 -23
-11 -43 -16 -47 -5 -3 -9 -42 -9 -88 0 -45 -3 -86 -7 -90 -5 -4 -8 -56 -8
-114 -1 -135 -12 -276 -22 -279 -5 -2 -7 -23 -5 -48 l4 -45 187 0 186 0 41
112 c23 62 46 114 52 116 17 5 30 -31 50 -133 l18 -90 202 -3 c193 -2 202 -2
202 17 0 30 29 34 42 6 11 -24 15 -25 100 -25 48 0 88 1 88 3 1 43 23 120 39
136 22 22 28 80 13 123 -5 13 -3 54 3 93 l11 70 7 -145 c4 -80 7 -175 7 -212
l0 -68 225 0 224 0 20 42 19 43 1 -42 1 -43 225 0 225 0 0 129 c0 134 -13 301
-30 385 -6 27 -9 50 -7 52 1 2 22 -13 46 -32 24 -18 47 -34 50 -34 14 0 55
160 59 230 2 41 -1 131 -8 200 -7 69 -13 151 -14 182 -1 43 -6 62 -24 80 -19
22 -22 35 -22 116 0 50 5 103 12 117 8 19 9 28 0 37 -8 8 4 28 47 77 79 90 81
94 64 155 -7 28 -16 59 -18 69 -2 10 -45 67 -94 127 -50 60 -105 131 -121 157
-17 26 -35 48 -40 48 -14 0 -50 61 -50 85 0 10 -5 22 -10 25 -6 4 -10 14 -9
23 4 32 -21 71 -61 97 -22 14 -40 32 -40 41 0 23 -55 71 -90 79 -35 8 -37 15
-10 38 15 13 19 28 18 64 -1 27 -5 50 -9 53 -4 3 -4 21 0 40 5 25 13 35 26 36
47 2 55 5 84 30 24 20 31 34 31 60 0 21 -6 37 -15 40 -12 5 -12 9 0 27 25 39
24 118 -2 145 -10 10 -25 32 -33 48 -18 33 -51 42 -85 24 -26 -14 -61 -9 -58
8 2 6 -4 30 -13 52 -14 34 -21 40 -45 40 -21 0 -32 -7 -43 -29 -16 -31 -59
-51 -110 -51 -34 0 -109 -31 -121 -50 -4 -7 -13 1 -23 21 -23 45 -38 46 -62 7
-17 -27 -21 -47 -19 -108 2 -43 -3 -88 -10 -105 -7 -18 -10 -48 -7 -72 3 -24
2 -43 -3 -43 -5 0 -19 -21 -31 -46 -17 -34 -21 -57 -17 -90 6 -57 -11 -54 -29
5 -23 79 -72 104 -114 59 -15 -17 -20 -36 -20 -82 -1 -34 -7 -79 -15 -101 -21
-58 -19 -70 22 -104 l36 -30 -46 -51 c-46 -52 -73 -109 -63 -135 3 -9 19 -15
38 -15 30 0 31 -1 15 -17 -15 -16 -25 -14 -154 27 -173 54 -240 83 -246 107
-3 10 -8 43 -12 75 -4 37 -11 58 -22 62 -13 5 -15 22 -11 109 6 123 27 179
105 281 29 37 53 78 53 90 0 12 -13 35 -29 50 -25 24 -28 33 -24 74 2 26 11
78 20 116 13 56 14 77 4 121 -7 29 -18 61 -26 71 -15 18 -15 18 -26 0 -10 -16
-14 -14 -36 25 -32 58 -70 96 -115 120 -49 25 -62 24 -54 -3z m150 -1148 c7
-81 5 -87 -68 -180 l-51 -64 -8 94 c-5 52 -10 115 -10 140 l-2 44 53 12 c30 7
56 15 59 18 15 15 21 1 27 -64z m-340 -153 c4 -21 25 -84 47 -140 34 -88 38
-106 28 -129 -11 -27 -9 -173 7 -425 3 -51 3 -93 0 -93 -8 0 -228 -29 -258
-35 l-28 -4 0 72 c0 50 -9 103 -29 172 -16 56 -32 128 -36 160 -7 61 -51 212
-67 230 -15 17 -9 -30 12 -90 l20 -59 -30 29 c-38 36 -49 27 -16 -13 23 -26
24 -33 15 -61 -6 -17 -9 -54 -7 -82 l3 -51 -65 6 c-64 7 -86 15 -62 23 6 3 12
11 12 19 0 8 -6 11 -16 7 -14 -5 -16 -2 -11 18 3 13 15 91 27 174 12 82 28
161 35 175 16 29 93 63 277 120 133 41 131 42 142 -23z m414 44 c20 -10 105
-40 187 -65 157 -49 244 -85 266 -113 10 -12 13 -54 11 -176 -2 -138 -1 -162
14 -178 9 -11 15 -19 12 -19 -7 0 -197 -57 -220 -65 -13 -5 -21 2 -32 29 -8
20 -22 36 -31 36 -13 0 -16 11 -14 63 1 34 -3 72 -8 82 -6 11 -16 44 -23 73
-6 28 -16 52 -22 52 -5 0 -7 8 -4 18 15 51 17 72 8 72 -13 0 -32 -63 -32 -107
0 -23 5 -33 15 -33 20 0 20 -79 0 -196 -15 -83 -18 -90 -57 -123 -23 -20 -79
-61 -125 -93 -90 -61 -147 -78 -182 -56 -16 10 -25 10 -39 2 -15 -10 -18 -3
-29 90 -6 55 -12 164 -12 241 -1 166 -8 150 157 344 56 67 102 126 102 131 0
15 16 12 58 -9z m-259 -42 c9 -27 9 -30 -8 -24 -18 6 -51 -17 -51 -35 0 -18
39 -31 60 -20 17 9 20 7 26 -14 6 -27 -13 -62 -59 -104 l-24 -23 -23 61 -23
61 33 64 c18 36 39 65 46 65 6 0 17 -14 23 -31z m1388 -434 c19 -20 32 -164
33 -370 0 -98 8 -205 22 -309 l22 -159 -64 -58 -65 -58 -7 42 c-3 23 -13 130
-22 237 -9 107 -18 204 -21 216 -2 11 4 43 14 70 10 27 21 69 25 94 6 41 9 46
33 45 19 0 31 8 42 27 14 24 14 28 -4 48 -12 13 -27 19 -40 16 -19 -5 -20 -1
-20 79 0 67 3 85 15 89 8 2 16 4 18 5 2 0 10 -6 19 -14z m97 -113 c29 -93 38
-187 25 -273 -25 -165 -25 -169 20 -275 54 -125 68 -185 53 -219 l-12 -26 -39
22 c-24 13 -37 27 -34 35 3 8 -2 46 -11 86 -16 77 -32 282 -41 538 -3 85 -8
165 -11 178 -5 17 -3 21 9 16 9 -3 27 -40 41 -82z m-1950 -64 c11 -44 8 -48
-38 -48 -24 0 -79 -7 -122 -15 -43 -8 -78 -14 -79 -12 -1 1 0 19 2 39 5 34 8
38 47 47 22 5 73 9 112 10 66 1 72 -1 78 -21z m44 -75 c-10 -2 -18 -12 -18
-21 0 -15 2 -15 10 -2 6 9 10 10 10 3 0 -6 -27 -31 -59 -56 -47 -35 -71 -46
-114 -51 -91 -12 -123 -27 -42 -20 l70 6 -20 -22 c-18 -20 -26 -22 -84 -16
-35 3 -66 7 -68 9 -2 3 1 16 8 30 21 45 217 146 284 145 22 0 32 -2 23 -5z
m1213 -9 c12 -7 11 -61 -2 -107 l-10 -38 -29 31 c-25 27 -31 29 -55 20 -15 -6
-29 -9 -30 -8 -1 2 0 29 3 62 l5 58 55 -6 c30 -4 59 -9 63 -12z m-307 -208 c3
-11 8 -45 12 -74 4 -29 13 -60 21 -68 13 -12 13 -27 2 -99 -9 -66 -10 -119 -1
-247 17 -242 19 -422 5 -440 -7 -8 -15 -33 -19 -56 -5 -31 -15 -49 -38 -67
l-31 -25 -7 48 c-10 77 -9 147 4 160 10 10 9 18 -4 40 -12 21 -14 40 -8 82 7
50 -9 231 -25 280 -4 12 6 29 30 53 41 41 41 36 -2 151 -25 67 -26 72 -14 150
24 154 20 143 46 138 13 -2 26 -13 29 -26z m-173 -198 c17 -29 51 -79 75 -110
24 -31 44 -59 44 -63 0 -25 -332 -245 -369 -245 -5 0 -39 34 -76 75 l-67 75
12 100 c11 92 14 99 27 81 24 -34 73 -21 73 19 0 12 29 28 93 54 50 20 103 43
117 51 14 8 28 14 32 15 3 0 21 -24 39 -52z m-410 -194 c-8 -65 -7 -82 5 -95
21 -23 18 -31 -31 -79 l-44 -44 -53 24 c-115 52 -213 131 -206 167 2 14 42 31
168 74 113 38 166 52 168 44 2 -7 -1 -48 -7 -91z"/>
<path d="M3605 3304 c-11 -2 -46 -6 -77 -9 l-58 -6 0 -245 0 -245 25 -24 c18
-18 35 -25 65 -25 l40 0 0 106 0 106 33 -7 c45 -10 52 -18 82 -93 36 -90 58
-112 109 -112 69 0 74 9 40 82 -16 34 -41 86 -56 115 -25 50 -26 53 -9 65 34
24 61 81 61 128 0 96 -66 157 -176 163 -32 2 -68 2 -79 1z"/>
<path d="M4968 3295 c-61 -22 -106 -63 -135 -123 -25 -50 -28 -68 -28 -152 0
-106 16 -149 76 -209 53 -54 86 -66 174 -66 69 0 86 4 127 28 88 52 128 130
129 257 1 98 -26 165 -87 219 -68 59 -170 78 -256 46z m146 -117 c59 -26 87
-175 50 -254 -33 -68 -132 -87 -184 -36 -68 69 -61 235 12 286 26 19 87 21
122 4z"/>
<path d="M5578 3295 c-61 -22 -106 -63 -135 -123 -25 -50 -28 -68 -28 -152 0
-106 16 -149 76 -209 53 -54 86 -66 174 -66 69 0 86 4 127 28 52 30 89 73 114
133 24 56 24 185 1 246 -22 58 -98 129 -155 146 -51 16 -127 14 -174 -3z m146
-117 c84 -38 88 -261 5 -303 -37 -20 -99 -19 -127 1 -73 51 -80 218 -12 286
31 31 87 38 134 16z"/>
<path d="M2970 3046 l0 -255 26 -20 c17 -13 41 -21 65 -21 l38 0 3 111 3 110
54 -76 c77 -108 121 -145 170 -145 31 0 44 6 60 26 27 35 26 50 -3 58 -27 7
-84 68 -141 151 -45 64 -49 52 76 201 43 52 79 99 79 104 0 6 -28 10 -64 10
-78 0 -96 -12 -177 -123 l-59 -79 0 75 c0 97 -20 127 -86 127 l-44 0 0 -254z"/>
<path d="M4090 3270 c-53 -75 -148 -332 -157 -426 -7 -73 8 -94 68 -94 42 0
42 0 57 90 l7 45 75 3 c107 4 116 1 123 -50 8 -58 43 -88 103 -88 24 0 44 2
44 4 0 2 -9 46 -19 97 -25 122 -64 244 -109 342 -39 87 -64 107 -131 107 -33
0 -43 -5 -61 -30z"/>
<path d="M4382 3284 c-16 -11 -22 -25 -22 -54 0 -46 12 -51 95 -47 l50 2 1
-175 c2 -230 1 -217 24 -240 14 -14 33 -20 65 -20 l45 0 0 220 0 220 59 0 c52
0 62 3 80 26 12 15 21 40 21 55 l0 29 -198 0 c-163 0 -201 -3 -220 -16z"/>
<path d="M6020 3051 l0 -252 25 -24 c18 -18 35 -25 65 -25 l40 0 0 173 1 172
61 -115 c105 -199 134 -230 216 -230 l42 0 0 253 c0 252 0 254 -23 275 -16 15
-36 22 -65 22 l-42 0 0 -151 0 -150 -60 120 c-75 148 -102 173 -196 179 l-64
4 0 -251z"/>
<path d="M6002 2634 c-66 -49 -82 -84 -39 -84 25 0 57 -28 57 -48 0 -8 -21
-12 -59 -12 l-60 0 -3 43 c-2 35 -7 43 -25 45 -21 3 -23 -1 -23 -42 0 -39 -3
-46 -20 -46 -17 0 -20 7 -20 45 0 38 -3 45 -19 45 -16 0 -20 -8 -23 -42 -2
-31 -8 -44 -20 -46 -13 -3 -17 6 -20 40 -2 31 -8 44 -20 46 -15 3 -18 -4 -18
-50 0 -62 -20 -98 -55 -98 -38 0 -58 28 -52 72 6 42 -14 54 -33 19 -18 -35
-11 -71 19 -102 41 -41 91 -40 133 2 l31 30 300 2 300 2 20 27 c34 45 3 108
-52 108 -32 0 -58 -24 -63 -59 -7 -49 -68 -55 -68 -7 0 23 -38 58 -42 39 0 -4
-2 -12 -3 -18 -2 -5 -3 -20 -4 -33 -1 -19 -6 -23 -28 -20 -19 2 -29 10 -31 23
-2 11 -15 32 -29 46 l-24 26 40 32 c25 20 38 37 34 46 -8 21 -11 20 -81 -31z"/>
<path d="M6625 2633 c-67 -50 -75 -73 -31 -84 30 -8 46 -24 46 -46 0 -9 -19
-13 -60 -13 l-60 0 0 33 c0 82 -106 92 -126 12 -8 -32 12 -64 49 -80 l30 -13
-32 -7 c-40 -8 -35 -29 7 -33 23 -2 38 4 57 22 23 24 33 26 105 26 l80 0 0 31
c0 36 -15 68 -43 90 -20 16 -20 17 22 44 39 26 51 54 26 61 -5 2 -37 -17 -70
-43z"/>
<path d="M3458 2573 l-3 -78 -33 -3 -34 -3 24 31 23 32 -24 19 c-13 10 -35 19
-50 19 -26 0 -91 -33 -91 -47 0 -4 12 -17 28 -30 l27 -22 -47 -1 c-46 0 -48 1
-48 29 0 31 -22 57 -40 46 -5 -3 -10 -33 -10 -66 0 -46 -3 -59 -15 -59 -20 0
-19 -36 1 -44 21 -8 51 9 59 34 7 22 44 26 178 21 93 -4 107 9 107 100 0 80
-6 99 -31 99 -16 0 -19 -10 -21 -77z"/>
<path d="M4068 2573 l-3 -78 -33 -3 -34 -3 24 31 23 32 -24 19 c-13 10 -35 19
-50 19 -26 0 -91 -33 -91 -47 0 -4 12 -17 28 -30 l27 -22 -46 -1 c-44 0 -47 1
-53 32 -9 45 -33 68 -72 68 -38 0 -64 -29 -64 -70 1 -64 24 -70 269 -68 253 1
243 -3 239 114 -3 73 -5 79 -25 82 -22 3 -23 0 -23 -73 0 -59 -3 -77 -15 -82
-24 -9 -30 3 -35 80 -4 57 -8 72 -22 75 -15 3 -18 -7 -20 -75z"/>
<path d="M4230 2567 c0 -101 11 -117 83 -117 36 0 49 5 61 22 28 40 15 98 -21
98 -8 0 -13 -14 -13 -40 0 -38 -2 -40 -30 -40 l-29 0 -3 78 c-3 71 -5 77 -25
80 -22 3 -23 1 -23 -81z"/>
<path d="M2810 2570 c-29 -29 -26 -74 6 -99 24 -19 40 -21 170 -20 135 1 145
2 159 22 27 39 14 97 -22 97 -9 0 -13 -14 -13 -41 0 -39 -1 -40 -32 -37 -29 3
-33 7 -36 36 -2 20 -9 32 -18 32 -32 0 -29 5 -32 -48 -2 -20 -7 -23 -34 -20
-28 3 -33 7 -36 33 -7 62 -70 87 -112 45z"/>
<path d="M4526 2568 c-17 -24 -21 -65 -8 -84 18 -27 55 -32 256 -32 212 0 266
-8 266 -39 0 -10 9 -13 33 -11 24 2 33 8 35 26 2 12 10 22 18 22 8 0 14 9 14
20 0 11 -4 20 -9 20 -6 0 -11 15 -13 33 -2 24 -8 33 -25 35 -20 3 -22 -1 -25
-59 -2 -39 -8 -64 -15 -67 -9 -2 -13 8 -13 35 0 51 -29 106 -61 117 -39 13
-76 1 -81 -28 -4 -22 -3 -24 13 -16 28 16 57 12 69 -9 20 -38 13 -42 -62 -39
l-72 3 -7 35 c-8 40 -32 60 -69 60 -29 0 -63 -30 -65 -58 -3 -51 -49 -59 -59
-10 -9 45 -33 68 -72 68 -23 0 -38 -7 -48 -22z"/>
<path d="M5307 2572 c-10 -10 -17 -28 -17 -39 0 -25 -25 -47 -44 -40 -8 3 -16
18 -18 34 -4 33 -38 46 -38 15 0 -31 -11 -52 -26 -52 -8 0 -14 -8 -14 -19 0
-17 9 -18 116 -17 110 1 117 2 136 26 23 28 18 77 -9 98 -24 18 -67 15 -86 -6z"/>
<path d="M4278 2173 c-3 -70 -5 -78 -23 -78 -15 0 -21 8 -23 32 -3 30 -24 49
-43 37 -5 -3 -9 -21 -9 -40 0 -31 -3 -34 -29 -34 -24 0 -29 5 -35 32 -9 45
-33 68 -72 68 -38 0 -64 -29 -64 -70 1 -59 31 -70 189 -69 162 1 163 2 159
115 -3 73 -5 79 -25 82 -21 3 -22 -1 -25 -75z"/>
<path d="M4350 2167 c0 -113 6 -119 131 -115 80 3 94 6 97 21 3 14 -4 17 -43
17 -46 0 -46 0 -43 32 4 39 20 46 47 17 17 -19 21 -20 26 -6 12 28 -13 57 -48
57 -48 0 -70 -20 -71 -64 -1 -30 -5 -36 -23 -36 -21 0 -22 5 -25 78 -3 71 -5
77 -25 80 -22 3 -23 1 -23 -81z"/>
<path d="M4706 2168 c-49 -69 24 -150 92 -102 28 20 31 83 4 107 -27 25 -78
22 -96 -5z"/>
<path d="M5028 2180 c-22 -13 -32 -63 -18 -90 6 -11 25 -27 43 -34 l32 -14
-32 -7 c-35 -8 -40 -14 -22 -32 15 -15 69 1 91 27 15 18 28 20 147 20 118 0
133 2 151 20 33 33 22 100 -17 100 -8 0 -13 -14 -13 -40 0 -38 -2 -40 -30 -40
-25 0 -32 6 -49 45 -14 31 -27 46 -45 51 -39 10 -76 -3 -76 -26 0 -17 5 -19
25 -14 18 4 32 1 45 -11 38 -35 26 -45 -55 -45 l-75 0 0 33 c0 55 -54 85 -102
57z"/>
<path d="M5578 2179 c-23 -13 -34 -74 -17 -95 7 -8 26 -21 43 -29 l31 -13 -33
-7 c-18 -4 -31 -13 -29 -19 6 -18 56 -19 83 -1 21 14 24 23 24 80 0 44 -5 68
-16 79 -17 18 -60 20 -86 5z"/>
<path d="M5224 1510 c-17 -5 -69 -34 -115 -65 -75 -49 -81 -55 -54 -55 l30 0
-39 -27 -39 -28 32 -5 c30 -5 31 -6 17 -25 -22 -28 -20 -38 5 -24 20 10 21 9
15 -16 -4 -16 -3 -24 3 -21 5 4 11 -4 13 -16 2 -12 9 -23 15 -26 9 -2 11 5 7
26 -5 26 -3 31 17 34 13 1 28 13 34 26 5 12 18 22 28 22 11 0 32 9 48 21 17
12 29 16 29 9 0 -14 38 -9 87 11 31 12 34 12 63 -16 17 -16 28 -35 25 -43 -8
-21 6 -113 16 -106 5 3 9 13 9 23 0 9 6 26 14 37 13 16 18 17 35 7 18 -12 21
-9 31 25 17 64 12 96 -22 140 -66 81 -88 93 -185 97 -48 3 -102 0 -119 -5z"/>
<path d="M6597 1493 c-15 -3 -33 -13 -40 -24 -6 -10 -17 -19 -24 -19 -18 0
-72 -49 -88 -81 -17 -32 -20 -144 -5 -183 15 -40 52 -78 62 -64 8 13 8 14 12
-24 0 -6 9 -12 19 -14 12 -1 17 5 17 21 0 12 7 25 15 29 9 3 15 0 15 -9 0 -20
29 -19 36 0 4 10 13 13 25 10 13 -5 23 3 39 32 20 36 21 37 15 8 -5 -28 -4
-29 10 -11 8 11 15 15 15 9 0 -6 11 -8 25 -5 20 3 24 1 19 -11 -4 -12 -11 -14
-28 -7 -17 6 -23 5 -23 -6 0 -8 4 -14 9 -14 5 0 6 -4 3 -10 -3 -5 -2 -10 4
-10 5 0 12 4 16 10 3 5 13 6 22 3 12 -5 14 -3 8 7 -5 9 -4 11 3 6 7 -4 12 -17
12 -29 0 -22 1 -22 20 3 10 14 25 46 31 73 9 32 16 43 21 35 15 -22 0 109 -16
140 -26 50 -93 109 -145 126 -28 9 -56 15 -63 15 -7 -1 -26 -4 -41 -6z"/>
<path d="M3731 1370 c-1 -24 -17 -59 -23 -50 -2 3 -8 14 -14 25 -6 11 -19 22
-29 24 -15 3 -15 -1 6 -30 21 -30 21 -32 3 -25 -10 4 -48 13 -84 21 -36 7 -74
16 -85 21 -18 7 -18 6 -6 -9 7 -9 12 -17 10 -18 -2 0 -15 -2 -29 -5 -14 -2
-38 -14 -55 -26 -16 -12 -45 -30 -65 -40 -21 -10 -28 -17 -17 -18 23 0 22 -7
-9 -48 -26 -33 -26 -34 -4 -27 18 6 21 4 16 -12 -15 -50 -16 -71 -7 -97 10
-26 12 -26 28 -10 16 16 18 16 28 -1 30 -52 84 -99 69 -61 -3 8 -1 17 5 20 6
4 8 13 4 21 -3 10 1 15 15 15 11 0 22 -5 24 -11 4 -13 58 -1 58 12 0 5 -12 6
-27 3 -34 -8 -20 10 16 21 16 5 21 4 17 -4 -13 -21 60 -12 90 11 l29 22 -20
-24 c-18 -21 -19 -23 -2 -17 10 4 30 7 43 7 29 0 32 16 5 25 -20 6 -20 6 0 26
17 17 23 18 37 7 39 -30 45 -63 10 -53 -22 7 -22 6 -4 -7 13 -10 16 -21 12
-36 -7 -21 -9 -21 -37 -6 -38 19 -83 16 -70 -5 8 -12 12 -12 24 -3 19 16 70
-5 63 -24 -3 -8 0 -11 10 -7 17 6 17 1 0 -64 -11 -42 -11 -51 -1 -47 21 8 38
61 31 95 -7 35 17 79 42 79 12 0 13 3 4 12 -7 7 -12 38 -12 71 0 50 2 58 16
53 29 -11 -65 91 -95 104 -29 11 -29 12 -13 40 13 22 14 33 5 51 l-12 24 0
-25z"/>
<path d="M2632 1220 c-18 -11 -39 -20 -48 -20 -9 0 -28 -13 -44 -29 -16 -16
-31 -26 -34 -24 -3 3 -14 -10 -25 -28 -17 -28 -19 -43 -14 -108 4 -42 6 -83 5
-91 -7 -70 -7 -75 10 -74 10 1 15 -2 12 -7 -3 -5 -1 -9 4 -9 5 0 14 -10 21
-22 6 -13 10 -16 7 -8 -20 75 -26 131 -17 149 6 11 11 28 11 38 0 21 97 86
117 79 7 -3 13 1 13 9 0 25 20 27 54 6 18 -12 47 -21 64 -21 51 0 67 -35 67
-150 l0 -95 28 26 c28 26 34 67 9 62 -8 -2 -9 4 -1 25 6 15 8 55 5 88 -3 34
-2 64 1 68 13 13 11 36 -3 36 -8 0 -14 9 -14 19 0 27 -37 51 -78 51 -26 0 -35
5 -39 21 -6 20 -15 21 -55 4 -11 -4 -17 -1 -20 9 -3 14 -7 13 -36 -4z"/>
<path d="M4490 1223 c-14 -9 -27 -20 -30 -23 -3 -4 -14 -9 -25 -12 -11 -3 -27
-9 -36 -12 -11 -5 -19 1 -27 19 -14 31 -36 23 -30 -10 4 -19 0 -24 -25 -29
-38 -8 -96 -51 -106 -79 -21 -56 -23 -70 -11 -62 10 6 11 2 7 -17 -10 -39 11
-98 38 -108 14 -5 27 -21 31 -35 10 -42 25 -17 23 41 -1 30 0 56 3 59 2 3 26
9 52 14 27 5 55 16 64 24 14 14 19 12 51 -23 33 -36 93 -68 77 -41 -11 17 5
13 42 -9 18 -11 39 -20 47 -20 18 0 18 -7 0 -90 -19 -86 -19 -91 5 -47 11 20
20 47 20 59 0 13 7 32 15 42 8 11 15 28 15 39 0 14 5 18 20 14 27 -7 25 5 -6
42 -23 27 -24 31 -7 31 10 0 25 5 33 10 13 9 12 13 -6 28 -11 9 -28 29 -37 45
-17 26 -17 27 2 27 11 0 22 4 26 10 6 9 -84 40 -118 40 -19 0 -20 1 -2 20 17
19 17 20 -1 20 -10 -1 -37 -7 -59 -15 -22 -8 -41 -15 -43 -15 -1 0 5 14 13 31
21 41 15 53 -15 32z"/>
<path d="M5975 1146 c-31 -14 -67 -43 -96 -77 -58 -68 -69 -89 -69 -131 0 -26
-9 -43 -40 -73 -23 -22 -40 -48 -39 -60 1 -20 1 -20 6 0 8 33 20 38 19 8 -1
-41 -19 -39 -122 12 l-88 43 -43 -48 c-44 -49 -101 -83 -160 -95 -29 -6 -33
-4 -33 14 0 11 -4 22 -9 25 -4 3 -6 -6 -3 -19 2 -15 0 -25 -7 -25 -23 0 -66
29 -89 59 l-23 31 36 17 c40 19 40 17 16 61 l-17 34 -17 -42 c-9 -23 -20 -39
-25 -36 -5 3 -27 -3 -49 -14 -22 -10 -81 -34 -132 -54 -52 -19 -106 -47 -122
-62 -35 -33 -64 -108 -79 -201 -10 -63 -14 -72 -28 -64 -13 7 -37 -6 -97 -50
-44 -32 -93 -66 -110 -74 -16 -9 -38 -21 -47 -27 -36 -25 -28 3 20 69 73 101
86 130 72 161 -10 23 -8 28 11 43 49 37 -22 70 -90 41 -32 -13 -41 -12 -89 3
-29 9 -68 30 -87 47 -46 40 -45 23 2 -32 40 -47 121 -90 169 -90 20 0 39 -9
54 -25 28 -30 26 -38 -54 -149 -31 -44 -54 -86 -52 -93 4 -9 1 -11 -5 -7 -7 4
-10 1 -7 -7 3 -8 14 -13 25 -12 22 2 49 -53 29 -61 -6 -2 -3 -5 7 -5 21 -1 22
11 1 50 -8 17 -14 32 -12 33 49 39 120 87 123 84 2 -1 -13 -30 -32 -63 -52
-87 -107 -225 -84 -211 7 5 11 -6 11 -33 l0 -41 704 0 704 0 6 27 c6 29 22
238 31 396 3 58 -1 113 -11 165 -9 42 -19 94 -23 115 -6 39 -18 48 -31 26 -5
-7 -7 6 -7 29 1 23 4 42 7 42 3 0 13 -14 22 -30 9 -17 24 -30 33 -30 15 0 16
-1 0 -72 -3 -16 -1 -28 4 -28 5 0 12 -11 15 -25 6 -24 7 -25 31 -9 17 11 36
14 57 10 18 -3 36 -5 39 -3 3 1 14 -4 23 -12 16 -13 16 -12 5 12 -9 20 -9 33
1 57 15 37 25 34 10 -4 -10 -27 0 -63 23 -77 13 -9 0 -29 -19 -29 -11 0 -12
-4 -4 -19 5 -11 10 -46 10 -79 0 -65 -18 -92 -59 -92 -17 0 -22 -4 -17 -16 3
-9 6 -18 6 -20 0 -2 14 -4 30 -4 17 0 33 -6 36 -14 3 -8 -6 -56 -21 -108 -31
-112 -36 -153 -25 -184 10 -26 40 -33 40 -9 0 8 -4 15 -10 15 -5 0 -10 21 -10
48 1 52 80 310 99 321 9 6 8 11 -4 21 -10 8 -15 29 -15 61 0 48 1 49 30 49 17
0 30 5 30 10 0 6 -7 10 -15 10 -8 0 -15 5 -15 10 0 21 41 8 61 -20 18 -23 29
-29 53 -27 26 2 32 8 36 32 3 17 11 30 18 29 31 -3 34 -5 28 -28 -9 -38 6 -36
43 6 l33 38 -160 0 -160 0 -5 27 c-3 15 -3 32 0 39 6 16 78 64 96 64 7 0 24
12 38 26 13 14 40 34 59 45 19 10 30 18 24 19 -6 0 -28 -11 -49 -25 -35 -25
-38 -25 -51 -8 -28 36 -32 50 -32 104 1 64 -24 126 -78 200 -60 82 -128 103
-209 65z m115 -3 c29 -6 73 -44 102 -88 l20 -30 -26 30 c-14 17 -26 25 -26 20
0 -6 5 -16 11 -22 5 -5 12 -27 15 -48 l5 -38 -21 25 c-11 15 -20 31 -20 36 0
6 -5 14 -12 18 -7 5 -9 2 -5 -8 4 -12 -2 -17 -24 -20 -20 -3 -29 0 -29 9 0 7
-4 13 -9 13 -5 0 -11 12 -13 28 l-3 27 -24 -38 c-29 -48 -37 -42 -15 12 23 58
9 65 -16 8 -24 -54 -35 -61 -26 -17 3 17 3 30 1 30 -2 0 -19 -29 -36 -65 -45
-95 -69 -103 -29 -11 10 25 15 46 10 46 -13 0 -27 -30 -45 -92 -9 -32 -13 -39
-10 -18 8 57 29 126 43 143 23 27 115 68 137 62 11 -4 31 -9 45 -12z m-31
-128 c0 -5 -4 -3 -10 5 -8 11 -9 4 -4 -29 7 -56 11 -62 38 -56 24 5 57 -18 77
-54 17 -33 24 -116 11 -138 -9 -14 -10 -9 -8 26 2 47 -16 68 -28 31 -4 -11
-17 -31 -30 -43 -13 -12 -28 -38 -32 -57 -7 -26 -15 -36 -32 -38 -55 -8 -94
24 -56 46 14 7 13 11 -5 27 -11 10 -20 25 -20 33 0 9 -3 12 -7 9 -13 -13 -43
26 -44 57 l-1 31 -13 -30 -14 -30 3 30 c6 61 25 91 63 103 24 7 41 8 49 2 8
-8 13 0 18 29 3 22 11 52 17 68 10 26 12 27 19 8 5 -11 9 -24 9 -30z"/>
<path d="M1846 964 c-3 -9 -6 -32 -6 -51 l0 -36 -42 6 c-24 4 -55 9 -70 13
-23 5 -28 3 -28 -12 0 -11 5 -26 11 -34 8 -12 9 -10 4 8 -6 19 -3 22 22 21 15
0 22 -3 16 -6 -24 -9 -13 -24 14 -21 21 2 30 -3 41 -25 11 -23 11 -29 -2 -43
-9 -8 -16 -24 -16 -34 0 -34 -18 -31 -30 5 -6 19 -17 35 -25 35 -7 0 -19 9
-26 21 -17 25 -90 36 -129 20 -21 -8 -14 -10 36 -8 49 2 66 -2 83 -17 38 -34
71 -106 71 -152 0 -43 0 -43 -27 -33 -34 13 -73 48 -73 66 0 7 -4 13 -10 13
-5 0 -10 -8 -10 -19 0 -21 -27 -48 -37 -37 -4 3 -1 12 5 18 7 7 12 18 12 26 0
9 -10 5 -31 -12 -35 -30 -71 -41 -96 -31 -17 6 -16 8 3 23 12 9 30 23 40 30
17 11 17 12 -6 6 -14 -3 -34 -14 -45 -24 -11 -10 -32 -23 -46 -29 -20 -7 -29
-21 -38 -56 -7 -26 -10 -50 -7 -52 3 -3 10 16 17 42 13 51 40 71 71 51 12 -7
29 -7 60 1 36 10 44 9 54 -5 10 -14 14 -13 38 13 14 15 26 23 26 17 0 -6 21
-23 46 -38 33 -19 43 -31 39 -43 -4 -9 -8 -38 -10 -66 -3 -27 -2 -41 1 -30 7
24 44 65 58 65 6 0 5 -4 -3 -9 -11 -7 -10 -11 5 -20 11 -6 14 -11 9 -11 -6 0
-16 5 -23 12 -7 7 -12 8 -12 2 0 -6 11 -17 25 -24 14 -8 35 -30 46 -50 12 -20
34 -45 50 -54 47 -28 36 -66 -24 -81 -15 -4 -27 -10 -27 -14 0 -4 -22 -35 -50
-69 -29 -36 -47 -68 -44 -76 3 -8 26 -24 51 -36 l46 -21 -6 -50 c-4 -28 -2
-47 3 -44 14 9 22 108 12 145 l-10 35 -1 -32 c-1 -18 -3 -33 -6 -33 -3 0 -23
9 -45 20 l-39 20 51 67 c57 77 89 95 119 67 26 -24 73 -22 109 4 32 24 66 30
54 10 -4 -7 2 -5 13 5 27 24 37 21 19 -5 -29 -40 -17 -40 22 2 41 42 70 54 57
23 -7 -18 -8 -23 -20 -76 -3 -15 -12 -27 -19 -27 -15 0 -29 -27 -21 -40 3 -4
-1 -10 -9 -13 -12 -5 -12 0 -5 26 10 37 12 53 3 45 -3 -4 -14 -39 -25 -80 -21
-81 -25 -168 -8 -168 7 0 8 11 4 30 -13 57 3 108 42 134 60 41 82 11 43 -61
-11 -21 -20 -52 -20 -70 0 -26 4 -33 20 -33 15 0 20 7 20 29 0 15 12 45 26 66
29 44 27 92 -7 126 -10 10 -19 22 -19 27 0 4 20 19 44 34 26 15 52 41 61 60 8
18 10 24 3 14 -19 -29 -52 -59 -89 -80 l-32 -19 7 34 c3 18 19 50 35 69 28 36
71 112 71 127 0 4 -15 -19 -33 -52 -30 -57 -35 -60 -97 -82 -84 -30 -124 -27
-128 7 -3 24 -6 25 -60 25 -74 0 -111 26 -148 101 -23 48 -26 62 -20 116 7 72
36 124 79 142 18 7 64 13 102 14 125 2 155 -33 150 -179 -3 -87 -29 -150 -73
-173 -15 -8 -22 -15 -16 -16 22 0 60 39 79 80 13 29 23 40 35 37 16 -4 17 8
16 122 -2 123 -1 126 24 148 l25 22 -34 -9 c-32 -9 -61 -3 -34 7 17 6 65 45
61 49 -2 2 -22 -3 -43 -11 -22 -8 -49 -14 -59 -15 -19 0 -18 1 3 21 12 12 20
28 17 36 -3 8 -6 17 -6 19 0 2 -9 4 -19 4 -11 0 -23 5 -26 10 -3 6 -24 10 -46
10 -24 0 -38 4 -34 10 17 28 -113 -1 -136 -31 -25 -33 -42 -15 -36 37 5 46 3
54 -7 28z"/>
<path d="M3403 909 c-7 -7 -13 -19 -13 -27 0 -10 -8 -13 -25 -9 -35 6 -27 -14
13 -34 24 -13 29 -19 19 -29 -10 -10 -8 -10 9 -1 19 9 25 6 48 -29 36 -55 103
-92 158 -88 30 2 48 -2 59 -13 9 -9 21 -18 27 -20 6 -2 12 -36 14 -78 2 -65 0
-75 -20 -91 -12 -10 -48 -21 -80 -25 -108 -12 -185 36 -212 133 -8 31 -7 39
10 57 21 22 27 55 10 55 -5 0 -26 -11 -46 -25 -20 -14 -43 -25 -50 -25 -8 0
-14 -9 -14 -19 0 -25 -2 -26 -130 -78 -58 -23 -104 -47 -102 -53 1 -6 -14 -45
-34 -88 -20 -42 -40 -87 -45 -99 -11 -30 -66 -63 -105 -63 l-31 0 14 -62 c8
-35 13 -88 10 -118 -2 -30 -2 -61 0 -67 4 -10 166 -13 765 -13 l761 0 -6 49
c-3 28 -13 64 -22 80 -14 28 -14 31 0 31 8 0 15 4 15 9 0 5 -8 7 -17 5 -13 -3
-33 19 -73 83 -30 48 -57 91 -59 97 -2 6 -7 13 -11 16 -5 3 -29 23 -56 45 -31
26 -55 39 -70 37 -15 -2 -27 4 -34 18 -7 13 -64 46 -144 84 -84 40 -140 73
-154 91 -23 29 -46 45 -94 67 -21 9 -26 17 -22 31 5 16 3 17 -14 8 -32 -17
-104 -13 -138 8 -42 26 -80 77 -90 124 -7 31 -11 36 -21 26z"/>
<path d="M6886 762 c20 -66 44 -286 50 -462 7 -211 14 -300 25 -300 5 0 8 114
7 264 l-2 264 28 42 c32 49 30 58 -30 146 -24 35 -44 68 -44 73 0 5 -11 11
-24 13 -23 5 -23 4 -10 -40z"/>
<path d="M2485 384 l4 -72 -52 1 c-30 0 -59 6 -69 14 -14 13 -17 12 -21 -4 -3
-10 -5 -38 -5 -62 0 -26 -5 -47 -13 -52 -12 -7 -12 -9 0 -9 7 0 11 -6 8 -15
-4 -8 -2 -17 3 -20 11 -7 7 -51 -10 -105 -18 -62 -21 -60 114 -60 l125 0 -20
57 c-25 74 -25 86 4 78 l22 -6 -22 17 c-30 22 -29 32 5 37 l27 4 -27 2 c-34 1
-36 14 -5 36 l22 17 -22 -7 c-22 -6 -23 -4 -23 50 0 45 -3 56 -14 52 -11 -4
-17 9 -25 56 l-10 62 4 -71z"/>
</g>
</svg>
